<?xml version="1.0" encoding="utf-8"?>
<!-- Generator: Adobe Illustrator 13.0.0, SVG Export Plug-In . SVG Version: 6.00 Build 14948)  -->
<!DOCTYPE svg PUBLIC "-//W3C//DTD SVG 1.1//EN" "http://www.w3.org/Graphics/SVG/1.1/DTD/svg11.dtd">
<svg version="1.1" id="Layer_2" xmlns="http://www.w3.org/2000/svg" xmlns:xlink="http://www.w3.org/1999/xlink" x="0px" y="0px"
	 width="60.575px" height="76.333px" viewBox="0 0 60.575 76.333" enable-background="new 0 0 60.575 76.333" xml:space="preserve">
<path fill="#AAC947" stroke="#AAC947" d="M46.424,48l-6.667-0.333c0,0-9,0.668-9.333-6.333l-1.333-4h-7.667c0,0-8,0-9.333-6.667h14
	L17.423,8c0,0,10-2.334,14.333,5.333l6.667,16.333c0,0,8.667-0.333,9,5.333c0,0-5.667-2-5.667,0l-2,0.333L46.424,48z"/>
<circle fill="none" stroke="#AAC947" stroke-width="4" cx="29.923" cy="29.167" r="27.167"/>
<g>
	<path fill="#445B51" d="M8.889,71.987H4.014l-0.49,1.253h0.49c0.483,0,0.827,0.096,1.033,0.286s0.308,0.439,0.308,0.747
		c0,0.301-0.103,0.546-0.308,0.736s-0.55,0.286-1.033,0.286H1.312c-0.483,0-0.827-0.096-1.033-0.286s-0.308-0.439-0.308-0.747
		c0-0.307,0.107-0.558,0.323-0.752c0.215-0.193,0.571-0.284,1.067-0.271l3.152-8.042H3.201c-0.483,0-0.827-0.095-1.033-0.285
		S1.86,64.473,1.86,64.166s0.103-0.557,0.309-0.747s0.549-0.286,1.033-0.286l4.336,0.01l3.994,10.098c0.47,0,0.78,0.054,0.93,0.16
		c0.3,0.221,0.45,0.512,0.45,0.873c0,0.301-0.101,0.546-0.303,0.736c-0.203,0.19-0.545,0.286-1.028,0.286H8.879
		c-0.483,0-0.828-0.096-1.033-0.286s-0.308-0.439-0.308-0.747c0-0.301,0.103-0.546,0.308-0.736s0.55-0.286,1.033-0.286h0.489
		L8.889,71.987z M8.057,69.931L6.441,65.86l-1.625,4.071H8.057z"/>
	<path fill="#445B51" d="M19.47,65.198v8.042h2.026c0.483,0,0.828,0.096,1.033,0.286s0.308,0.439,0.308,0.747
		c0,0.301-0.103,0.546-0.308,0.736s-0.55,0.286-1.033,0.286h-6.059c-0.483,0-0.827-0.096-1.033-0.286s-0.309-0.439-0.309-0.747
		c0-0.301,0.103-0.546,0.309-0.736s0.549-0.286,1.033-0.286h2.026v-8.042h-2.026c-0.483,0-0.827-0.095-1.033-0.285
		s-0.309-0.439-0.309-0.747s0.103-0.557,0.309-0.747s0.549-0.286,1.033-0.286l6.059,0.01c0.483,0,0.828,0.094,1.033,0.281
		s0.308,0.435,0.308,0.742s-0.103,0.557-0.308,0.747s-0.55,0.285-1.033,0.285H19.47z"/>
	<path fill="#445B51" d="M35.554,71.536v2.757c-0.907,0.502-1.679,0.844-2.314,1.028c-0.637,0.184-1.323,0.275-2.062,0.275
		c-1.024,0-1.974-0.157-2.848-0.472c-0.685-0.24-1.226-0.544-1.62-0.912c-0.395-0.367-0.759-0.911-1.091-1.629
		c-0.333-0.719-0.5-1.522-0.5-2.412v-1.483c0-1.371,0.408-2.594,1.224-3.67c1.097-1.458,2.587-2.187,4.474-2.187
		c0.548,0,1.069,0.057,1.561,0.171c0.493,0.113,0.961,0.284,1.405,0.511c0.268-0.247,0.528-0.371,0.783-0.371
		c0.293,0,0.531,0.104,0.715,0.312c0.183,0.207,0.273,0.558,0.273,1.053v1.334c0,0.494-0.093,0.847-0.278,1.058
		c-0.187,0.21-0.427,0.315-0.72,0.315c-0.235,0-0.438-0.073-0.607-0.221c-0.131-0.1-0.239-0.322-0.328-0.667
		c-0.088-0.344-0.188-0.576-0.298-0.696c-0.177-0.194-0.488-0.366-0.936-0.517c-0.446-0.15-0.947-0.226-1.502-0.226
		c-0.796,0-1.488,0.167-2.075,0.501c-0.417,0.248-0.803,0.679-1.155,1.294c-0.353,0.615-0.529,1.283-0.529,2.006v1.483
		c0,1.104,0.312,1.94,0.935,2.512c0.623,0.572,1.613,0.857,2.971,0.857c0.92,0,1.759-0.177,2.516-0.531v-1.474h-2.046
		c-0.483,0-0.827-0.096-1.033-0.286s-0.308-0.439-0.308-0.747s0.103-0.557,0.308-0.747s0.55-0.286,1.033-0.286l3.563,0.011
		c0.482,0,0.827,0.094,1.033,0.28c0.205,0.188,0.308,0.435,0.308,0.742c0,0.24-0.07,0.451-0.21,0.632
		C36.055,71.315,35.841,71.449,35.554,71.536z"/>
	<path fill="#445B51" d="M41.692,65.198v8.042h4.326v-1.945c0-0.494,0.094-0.847,0.279-1.058s0.429-0.316,0.729-0.316
		c0.294,0,0.533,0.105,0.72,0.316c0.186,0.211,0.278,0.563,0.278,1.058v4.001h-9.505c-0.483,0-0.827-0.096-1.033-0.286
		c-0.205-0.19-0.308-0.439-0.308-0.747c0-0.301,0.103-0.546,0.308-0.736c0.206-0.19,0.55-0.286,1.033-0.286h1.165v-8.042h-1.165
		c-0.483,0-0.827-0.095-1.033-0.285c-0.205-0.19-0.308-0.439-0.308-0.747s0.103-0.557,0.308-0.747
		c0.206-0.19,0.55-0.286,1.033-0.286l4.347,0.01c0.482,0,0.827,0.094,1.032,0.281c0.206,0.188,0.309,0.435,0.309,0.742
		s-0.103,0.557-0.309,0.747c-0.205,0.19-0.55,0.285-1.032,0.285H41.692z"/>
	<path fill="#445B51" d="M52.499,70.222v3.018h5.119v-1.113c0-0.494,0.094-0.847,0.279-1.058c0.186-0.21,0.429-0.315,0.729-0.315
		c0.293,0,0.533,0.105,0.72,0.315c0.186,0.211,0.278,0.563,0.278,1.058v3.169h-9.446c-0.483,0-0.827-0.096-1.033-0.286
		c-0.205-0.19-0.308-0.439-0.308-0.747c0-0.301,0.104-0.546,0.313-0.736c0.209-0.19,0.552-0.286,1.028-0.286h0.313v-8.042h-0.313
		c-0.483,0-0.827-0.095-1.033-0.285c-0.205-0.19-0.308-0.439-0.308-0.747s0.103-0.557,0.308-0.747
		c0.206-0.19,0.55-0.286,1.033-0.286l9.006,0.01v3.129c0,0.488-0.092,0.837-0.274,1.048s-0.424,0.315-0.724,0.315
		c-0.301,0-0.544-0.104-0.729-0.311c-0.187-0.207-0.279-0.558-0.279-1.053v-1.073h-4.679v2.969h1.762
		c0-0.535,0.049-0.879,0.146-1.033c0.202-0.327,0.49-0.491,0.862-0.491c0.293,0,0.533,0.105,0.719,0.315
		c0.187,0.211,0.279,0.563,0.279,1.059v2.366c0,0.447-0.053,0.749-0.156,0.902c-0.209,0.314-0.49,0.471-0.842,0.471
		c-0.372,0-0.66-0.163-0.862-0.491c-0.098-0.153-0.146-0.501-0.146-1.042H52.499z"/>
</g>
</svg>
